<svg width="17" height="17" viewBox="0 0 17 17" fill="none" xmlns="http://www.w3.org/2000/svg">
<path d="M11.9537 4.77854C10.7268 4.079 9.7738 3.53562 8.99983 3.18312C8.22296 2.82929 7.5486 2.62948 6.89288 2.69754C5.85219 2.80556 4.90479 3.34479 4.28738 4.18401C3.89741 4.7141 3.73503 5.39446 3.65679 6.23677C3.57885 7.0757 3.57885 8.16304 3.57886 9.56142V9.6197C3.57885 11.0181 3.57885 12.1054 3.65678 12.9444C3.73503 13.7867 3.89741 14.467 4.28738 14.9971C4.90478 15.8363 5.85219 16.3756 6.89288 16.4836C7.5486 16.5516 8.22296 16.3518 8.99983 15.998C9.77379 15.6455 10.7268 15.1021 11.9536 14.4026L12.0034 14.3742C13.2302 13.6747 14.1833 13.1313 14.8795 12.6456C15.5776 12.1584 16.0923 11.6803 16.3621 11.0818C16.79 10.1327 16.79 9.04842 16.3621 8.09934C16.0923 7.50078 15.5776 7.0227 14.8795 6.53556C14.1833 6.0498 13.2302 5.50641 12.0034 4.80692L11.9537 4.77854Z" fill="white"/>
</svg>
