<svg width="15" height="17" viewBox="0 0 15 17" fill="none" xmlns="http://www.w3.org/2000/svg">
<path d="M13.4328 1.03596C13.1765 0.77968 12.761 0.77968 12.5047 1.03596C12.2484 1.29224 12.2484 1.70776 12.5047 1.96404L13.1385 2.59783C11.5336 2.66246 10.0507 3.49092 9.15518 4.83416L4.75276 11.4378C4.06306 12.4723 2.90195 13.0938 1.65857 13.0938H1.375C1.01256 13.0938 0.71875 13.3876 0.71875 13.75C0.71875 14.1124 1.01256 14.4062 1.375 14.4062H1.65857C3.34079 14.4062 4.9117 13.5655 5.84482 12.1658L10.2472 5.56221C10.8489 4.65968 11.8094 4.07158 12.8702 3.93618L12.3299 4.38648C12.0514 4.61851 12.0138 5.03231 12.2459 5.31075C12.4779 5.58918 12.8917 5.6268 13.1701 5.39477L14.4028 4.36754C14.739 4.08735 14.9234 3.69433 14.9503 3.29399C14.9787 2.87174 14.8322 2.43532 14.5053 2.10844L13.4328 1.03596Z" fill="black"/>
<path d="M1.375 2.59375C1.01256 2.59375 0.71875 2.88756 0.71875 3.25C0.71875 3.61244 1.01256 3.90625 1.375 3.90625H1.65857C2.90195 3.90625 4.06306 4.52766 4.75276 5.56221C4.9538 5.86377 5.36125 5.94526 5.66281 5.74422C5.96438 5.54317 6.04587 5.13573 5.84482 4.83416C4.9117 3.43448 3.34079 2.59375 1.65857 2.59375H1.375Z" fill="black"/>
<path d="M10.2472 11.4378C10.0462 11.1362 9.63875 11.0547 9.33719 11.2558C9.03562 11.4568 8.95413 11.8643 9.15518 12.1658C10.0111 13.4498 11.4038 14.2634 12.9267 14.3892L12.3299 14.8865C12.0514 15.1185 12.0138 15.5323 12.2459 15.8107C12.4779 16.0892 12.8917 16.1268 13.1701 15.8948L14.4028 14.8675C14.739 14.5873 14.9234 14.1943 14.9503 13.794C14.9787 13.3717 14.8322 12.9353 14.5053 12.6084L13.4328 11.536C13.1765 11.2797 12.761 11.2797 12.5047 11.536C12.2484 11.7922 12.2484 12.2078 12.5047 12.464L13.1283 13.0877C11.9664 13.0211 10.8974 12.413 10.2472 11.4378Z" fill="black"/>
</svg>
