<svg width="17" height="18" viewBox="0 0 17 18" fill="none" xmlns="http://www.w3.org/2000/svg">
<path d="M11.8078 1.16096C11.5515 0.90468 11.136 0.90468 10.8797 1.16096C10.6235 1.41724 10.6235 1.83276 10.8797 2.08904L11.5095 2.71875L7.48342 2.71874C5.99043 2.7185 5.07937 2.71836 4.32029 2.965C2.78858 3.46268 1.58771 4.66356 1.09003 6.19526C0.843386 6.95434 0.843529 7.8654 0.843764 9.35839V9.64161C0.843529 11.1346 0.843386 12.0457 1.09003 12.8047C1.20203 13.1494 1.57225 13.3381 1.91695 13.2261C2.26165 13.1141 2.45029 12.7439 2.33829 12.3992C2.16438 11.8639 2.15628 11.1797 2.15628 9.5C2.15628 7.8203 2.16438 7.13609 2.33829 6.60084C2.70614 5.46871 3.59374 4.58111 4.72587 4.21326C5.26112 4.03935 5.94533 4.03125 7.62503 4.03125H11.2812L10.7049 4.51148C10.4265 4.74351 10.3889 5.15731 10.6209 5.43575C10.8529 5.71418 11.2667 5.7518 11.5452 5.51977L12.7778 4.49254C13.1141 4.21235 13.2984 3.81933 13.3253 3.41899C13.3537 2.99674 13.2072 2.56032 12.8803 2.23344L11.8078 1.16096Z" fill="black"/>
<path d="M15.91 6.19526C15.798 5.85056 15.4278 5.66192 15.0831 5.77392C14.7384 5.88592 14.5498 6.25615 14.6618 6.60084C14.8357 7.13609 14.8438 7.8203 14.8438 9.5C14.8438 11.1797 14.8357 11.8639 14.6618 12.3992C14.2939 13.5313 13.4063 14.4189 12.2742 14.7867C11.7389 14.9607 11.0547 14.9688 9.37503 14.9688H7.62503C6.77867 14.9688 6.18513 14.9668 5.73568 14.9424L6.33907 14.339C6.59535 14.0828 6.59535 13.6672 6.33907 13.411C6.08279 13.1547 5.66727 13.1547 5.41099 13.411L4.33851 14.4834C4.10378 14.7182 3.96105 15.0109 3.91068 15.3147C3.82555 15.8281 4.00456 16.3789 4.44098 16.7425L5.67366 17.7698C5.95209 18.0018 6.3659 17.9642 6.59792 17.6857C6.82995 17.4073 6.79233 16.9935 6.5139 16.7615L5.91779 16.2647C6.36342 16.2814 6.87731 16.2814 7.48873 16.2813H9.51663C11.0096 16.2815 11.9207 16.2816 12.6798 16.035C14.2115 15.5373 15.4124 14.3364 15.91 12.8047C16.1567 12.0457 16.1565 11.1346 16.1563 9.6416V9.3584C16.1565 7.8654 16.1567 6.95434 15.91 6.19526Z" fill="black"/>
</svg>
