<svg width="108" height="33" viewBox="0 0 108 33" fill="none" xmlns="http://www.w3.org/2000/svg">
<path d="M16.1959 0C7.25135 0 0 7.38743 0 16.5001C0 25.6132 7.25135 33 16.1959 33C25.1415 33 32.392 25.6132 32.392 16.5001C32.392 7.38802 25.1415 0.000788135 16.1957 0.000788135L16.1959 0ZM23.6233 23.7979C23.3332 24.2826 22.7104 24.4363 22.2347 24.1387C18.432 21.7724 13.645 21.2364 8.00736 22.5487C7.46409 22.6748 6.92257 22.328 6.7988 21.7743C6.67444 21.2207 7.01347 20.669 7.55809 20.5429C13.7276 19.1069 19.0196 19.7252 23.2887 22.3832C23.7645 22.6807 23.9153 23.3132 23.6233 23.7979ZM25.6056 19.3051C25.2401 19.9104 24.4626 20.1015 23.8689 19.7291C19.5155 17.0029 12.8793 16.2134 7.73002 17.8058C7.06221 18.0114 6.35688 17.6279 6.15419 16.9487C5.95306 16.2684 6.32961 15.5512 6.99626 15.3443C12.8781 13.5261 20.1904 14.4068 25.1898 17.5367C25.7836 17.9091 25.9712 18.701 25.6056 19.3051ZM25.7758 14.6267C20.5559 11.468 11.9438 11.1776 6.96009 12.7186C6.1598 12.9659 5.31348 12.5056 5.07096 11.6903C4.82843 10.8746 5.27983 10.0129 6.0807 9.76505C11.8017 7.99568 21.3121 8.33753 27.3219 11.9722C28.0432 12.4075 28.2792 13.3546 27.8518 14.087C27.4263 14.8204 26.4941 15.0621 25.7766 14.6267H25.7758ZM44.0638 15.232C41.2672 14.5526 40.7702 14.0758 40.7702 13.0739C40.7702 12.1273 41.6443 11.4903 42.9459 11.4903C44.2069 11.4903 45.4562 11.974 46.7675 12.9698C46.8062 13 46.8565 13.012 46.9048 13.0041C46.9551 12.9966 46.9976 12.9692 47.0267 12.9281L48.3921 10.9672C48.4481 10.8864 48.4327 10.7751 48.3572 10.7134C46.7965 9.43797 45.0404 8.8179 42.9865 8.8179C39.9675 8.8179 37.8575 10.6639 37.8575 13.3052C37.8575 16.1376 39.6774 17.1405 42.8221 17.9146C45.4969 18.5426 45.9494 19.0686 45.9494 20.0089C45.9494 21.0512 45.0366 21.6995 43.5667 21.6995C41.9344 21.6995 40.6019 21.1379 39.1127 19.8257C39.076 19.7922 39.0257 19.7784 38.9793 19.7803C38.929 19.7843 38.8845 19.8079 38.8536 19.8454L37.3218 21.7014C37.258 21.7802 37.2657 21.8945 37.3392 21.9615C39.0721 23.5378 41.2034 24.3693 43.5048 24.3693C46.7578 24.3693 48.8601 22.5585 48.8601 19.7547C48.8659 17.3889 47.4753 16.0786 44.0696 15.2345L44.0638 15.232ZM56.2209 12.4223C54.811 12.4223 53.6545 12.9881 52.6991 14.1477V12.8425C52.6991 12.7395 52.6179 12.6556 52.5173 12.6556H50.0128C49.9122 12.6556 49.831 12.7395 49.831 12.8425V27.3445C49.831 27.447 49.9122 27.5317 50.0128 27.5317H52.5173C52.6179 27.5317 52.6991 27.447 52.6991 27.3445V22.7674C53.6545 23.857 54.811 24.391 56.2209 24.391C58.8415 24.391 61.4949 22.3359 61.4949 18.4072C61.4988 14.4777 58.8454 12.4221 56.2228 12.4221L56.2209 12.4223ZM58.5823 18.4072C58.5823 20.4069 57.3736 21.8039 55.6407 21.8039C53.9291 21.8039 52.6372 20.3439 52.6372 18.4072C52.6372 16.4703 53.9291 15.0107 55.6407 15.0107C57.3446 15.0105 58.5823 16.4388 58.5823 18.4072ZM68.293 12.4223C64.9181 12.4223 62.2743 15.0696 62.2743 18.45C62.2743 21.794 64.9007 24.4126 68.2524 24.4126C71.6388 24.4126 74.2903 21.7743 74.2903 18.4072C74.2903 15.0515 71.6562 12.4227 68.293 12.4227V12.4223ZM68.293 21.8236C66.4982 21.8236 65.1444 20.3537 65.1444 18.4062C65.1444 16.4499 66.4518 15.0302 68.2524 15.0302C70.0587 15.0302 71.4203 16.4995 71.4203 18.449C71.4203 20.4049 70.1051 21.8236 68.293 21.8236ZM81.4964 12.6556H78.7405V9.78554C78.7405 9.68269 78.6592 9.59875 78.5587 9.59875H76.0541C75.9536 9.59875 75.8704 9.68269 75.8704 9.78554V12.6556H74.6674C74.5669 12.6556 74.4856 12.7395 74.4856 12.8425V15.0349C74.4856 15.1378 74.5669 15.2219 74.6674 15.2219H75.8704V20.8956C75.8704 23.1871 76.9902 24.3496 79.2007 24.3496C80.0981 24.3496 80.8427 24.1604 81.5448 23.7545C81.6028 23.723 81.6376 23.66 81.6376 23.593V21.5044C81.6376 21.4413 81.6047 21.3803 81.5506 21.3468C81.4964 21.3113 81.4287 21.3093 81.3726 21.3389C80.8911 21.5852 80.425 21.6995 79.9028 21.6995C79.1002 21.6995 78.7405 21.3271 78.7405 20.4956V15.2229H81.4964C81.597 15.2229 81.6782 15.139 81.6782 15.0359V12.8437C81.6821 12.7407 81.6008 12.6567 81.4983 12.6567L81.4964 12.6556ZM91.0968 12.6668V12.3143C91.0968 11.2773 91.4875 10.8149 92.3616 10.8149C92.8838 10.8149 93.3035 10.9205 93.7735 11.0801C93.8315 11.0986 93.8914 11.0893 93.9379 11.0541C93.9862 11.0188 94.0133 10.9622 94.0133 10.9023V8.75269C94.0133 8.67052 93.963 8.59782 93.8837 8.57358C93.3886 8.42324 92.7542 8.26896 91.8027 8.26896C89.4916 8.26896 88.2674 9.5958 88.2674 12.1046V12.6445H87.0644C86.9638 12.6445 86.8807 12.7285 86.8807 12.8313V15.0349C86.8807 15.1378 86.9638 15.2219 87.0644 15.2219H88.2674V23.9713C88.2674 24.0757 88.3505 24.1585 88.4511 24.1585H90.9537C91.0562 24.1585 91.1374 24.0757 91.1374 23.9713V15.2225H93.4756L97.0574 23.9713C96.6513 24.8895 96.2509 25.0727 95.7055 25.0727C95.2646 25.0727 94.7985 24.9387 94.3247 24.6727C94.2802 24.6491 94.226 24.6451 94.1796 24.6589C94.1313 24.6767 94.0906 24.7121 94.0713 24.7594L93.2223 26.6569C93.1817 26.7475 93.2165 26.8519 93.3016 26.8992C94.1873 27.3879 94.9861 27.5967 95.9744 27.5967C97.8233 27.5967 98.8464 26.7179 99.7457 24.3575L104.089 12.9221C104.113 12.8646 104.105 12.7996 104.07 12.7486C104.037 12.6979 103.981 12.6674 103.921 12.6674H101.314C101.235 12.6674 101.165 12.718 101.14 12.7927L98.4692 20.5626L95.545 12.7876C95.5179 12.7153 95.4502 12.6674 95.3748 12.6674H91.0968V12.6668ZM85.5307 12.6556H83.0262C82.9256 12.6556 82.8425 12.7395 82.8425 12.8425V23.9713C82.8425 24.0757 82.9256 24.1585 83.0262 24.1585H85.5307C85.6313 24.1585 85.7145 24.0757 85.7145 23.9713V12.8433C85.7145 12.7403 85.6332 12.6563 85.5307 12.6563V12.6556ZM84.293 7.58801C83.3008 7.58801 82.4963 8.4061 82.4963 9.41669C82.4963 10.4279 83.3008 11.247 84.293 11.247C85.2851 11.247 86.0877 10.4279 86.0877 9.41669C86.0877 8.4063 85.2832 7.58801 84.293 7.58801ZM106.228 16.2339C105.238 16.2339 104.467 15.4231 104.467 14.4385C104.467 13.4539 105.248 12.6339 106.238 12.6339C107.228 12.6339 108 13.4445 108 14.4283C108 15.4129 107.219 16.2339 106.228 16.2339ZM106.238 12.8124C105.335 12.8124 104.652 13.5434 104.652 14.4385C104.652 15.3333 105.331 16.0544 106.228 16.0544C107.132 16.0544 107.814 15.324 107.814 14.4283C107.814 13.5335 107.135 12.8124 106.238 12.8124ZM106.629 14.6129L107.128 15.3238H106.706L106.257 14.6716H105.873V15.3238H105.521V13.4394H106.344C106.776 13.4394 107.058 13.6634 107.058 14.0405C107.06 14.3495 106.884 14.5382 106.631 14.6129H106.629ZM106.331 13.7627H105.873V14.3587H106.331C106.559 14.3587 106.696 14.2446 106.696 14.0604C106.696 13.8665 106.559 13.7627 106.331 13.7627Z" fill="#C83C3C"/>
</svg>
