<svg width="14" height="13" viewBox="0 0 14 13" fill="none" xmlns="http://www.w3.org/2000/svg">
<path d="M2.03125 1.25C2.03125 0.887563 1.73744 0.59375 1.375 0.59375C1.01256 0.59375 0.71875 0.887563 0.71875 1.25V11.75C0.71875 12.1124 1.01256 12.4062 1.375 12.4062C1.73744 12.4062 2.03125 12.1124 2.03125 11.75L2.03125 1.25Z" fill="#363636"/>
<path d="M10.5517 0.606026C9.95944 0.542693 9.37047 0.730944 8.73883 1.02734C8.11022 1.32232 7.34071 1.77438 6.36881 2.34533L6.30871 2.38064C5.33663 2.95169 4.56714 3.40372 4.0019 3.81006C3.43291 4.21909 2.98208 4.64176 2.74277 5.18867C2.37741 6.02364 2.37741 6.97636 2.74277 7.81132C2.98208 8.35824 3.43291 8.7809 4.0019 9.18994C4.56714 9.59628 5.33662 10.0483 6.30869 10.6193L6.36883 10.6547C7.34072 11.2256 8.11022 11.6777 8.73883 11.9727C9.37046 12.2691 9.95944 12.4573 10.5516 12.394C11.4544 12.2974 12.2709 11.816 12.8003 11.0745C13.1462 10.5902 13.2797 9.9836 13.3431 9.28041C13.4063 8.58024 13.4063 7.67712 13.4063 6.53407V6.46591C13.4063 5.32287 13.4063 4.41975 13.3431 3.71959C13.2797 3.0164 13.1462 2.40977 12.8003 1.92546C12.2709 1.18396 11.4544 0.702565 10.5517 0.606026Z" fill="#363636"/>
</svg>
