<svg width="14" height="13" viewBox="0 0 14 13" fill="none" xmlns="http://www.w3.org/2000/svg">
<path d="M13.2812 1.25C13.2812 0.887563 12.9874 0.59375 12.625 0.59375C12.2626 0.59375 11.9687 0.887563 11.9687 1.25V11.75C11.9687 12.1124 12.2626 12.4062 12.625 12.4062C12.9874 12.4062 13.2812 12.1124 13.2812 11.75V1.25Z" fill="#363636"/>
<path d="M7.63123 2.34535C6.65932 1.77439 5.88979 1.32232 5.26117 1.02734C4.62954 0.730946 4.04056 0.542695 3.44835 0.606028C2.54565 0.702566 1.72913 1.18396 1.19967 1.92546C0.853844 2.40977 0.720272 3.0164 0.65687 3.71959C0.59374 4.41976 0.593744 5.32288 0.59375 6.46593V6.53407C0.593744 7.67712 0.593739 8.58024 0.656869 9.28041C0.720271 9.98359 0.853843 10.5902 1.19967 11.0745C1.72912 11.816 2.54565 12.2974 3.44835 12.394C4.04056 12.4573 4.62954 12.2691 5.26117 11.9727C5.88978 11.6777 6.6593 11.2256 7.6312 10.6547L7.69128 10.6194C8.66337 10.0483 9.43286 9.59628 9.9981 9.18994C10.5671 8.78091 11.0179 8.35824 11.2572 7.81133C11.6226 6.97636 11.6226 6.02364 11.2572 5.18868C11.0179 4.64177 10.5671 4.2191 9.9981 3.81006C9.43286 3.40372 8.66338 2.95169 7.69131 2.38065L7.63123 2.34535Z" fill="#363636"/>
</svg>
