<svg width="7" height="16" viewBox="0 0 7 16" fill="none" xmlns="http://www.w3.org/2000/svg">
<path d="M1.71875 1.25C1.71875 0.93934 1.45292 0.6875 1.125 0.6875C0.797081 0.6875 0.53125 0.93934 0.53125 1.25V14.75C0.53125 15.0607 0.797081 15.3125 1.125 15.3125C1.45292 15.3125 1.71875 15.0607 1.71875 14.75L1.71875 1.25Z" fill="white"/>
<path d="M6.46875 1.25C6.46875 0.93934 6.20292 0.6875 5.875 0.6875C5.54708 0.6875 5.28125 0.93934 5.28125 1.25L5.28125 14.75C5.28125 15.0607 5.54708 15.3125 5.875 15.3125C6.20292 15.3125 6.46875 15.0607 6.46875 14.75L6.46875 1.25Z" fill="white"/>
</svg>
