<svg width="24" height="24" viewBox="0 0 24 24" fill="none" xmlns="http://www.w3.org/2000/svg">
<path fill-rule="evenodd" clip-rule="evenodd" d="M10.4583 0.260498C4.84911 0.260498 0.302002 4.80761 0.302002 10.4167C0.302002 16.0259 4.84911 20.573 10.4583 20.573C16.0674 20.573 20.6145 16.0259 20.6145 10.4167C20.6145 4.80761 16.0674 0.260498 10.4583 0.260498ZM1.8645 10.4167C1.8645 5.67055 5.71206 1.823 10.4583 1.823C15.2044 1.823 19.052 5.67055 19.052 10.4167C19.052 15.1629 15.2044 19.0105 10.4583 19.0105C5.71206 19.0105 1.8645 15.1629 1.8645 10.4167Z" fill="#2D264B"/>
<path d="M19.3441 18.1978C19.039 17.8927 18.5443 17.8927 18.2392 18.1977C17.9341 18.5028 17.9341 18.9975 18.2392 19.3026L22.4058 23.4692C22.7109 23.7743 23.2055 23.7743 23.5106 23.4692C23.8157 23.1641 23.8157 22.6695 23.5106 22.3644L19.3441 18.1978Z" fill="#2D264B"/>
</svg>
